<?xml version="1.0" encoding="UTF-8" standalone="no"?>
<svg
   width="790.85551"
   height="705.6377"
   viewBox="0 0 790.85551 705.6377"
   role="img"
   artist="Katerina Limpitsouni"
   source="https://undraw.co/"
   version="1.1"
   id="svg88"
   sodipodi:docname="undraw_setup-wizard_wzp9.svg"
   inkscape:version="1.1.2 (0a00cf5339, 2022-02-04)"
   xmlns:inkscape="http://www.inkscape.org/namespaces/inkscape"
   xmlns:sodipodi="http://sodipodi.sourceforge.net/DTD/sodipodi-0.dtd"
   xmlns="http://www.w3.org/2000/svg"
   xmlns:svg="http://www.w3.org/2000/svg">
  <defs
     id="defs92" />
  <sodipodi:namedview
     id="namedview90"
     pagecolor="#ffffff"
     bordercolor="#666666"
     borderopacity="1.0"
     inkscape:pageshadow="2"
     inkscape:pageopacity="0.0"
     inkscape:pagecheckerboard="0"
     showgrid="false"
     inkscape:zoom="1.0823183"
     inkscape:cx="50.354872"
     inkscape:cy="334.9292"
     inkscape:window-width="2170"
     inkscape:window-height="1329"
     inkscape:window-x="70"
     inkscape:window-y="34"
     inkscape:window-maximized="1"
     inkscape:current-layer="svg88" />
  <ellipse
     style="fill:#e6e6e6;stroke-width:0.815827"
     id="path909"
     cx="216.27525"
     cy="515.42371"
     rx="216.45863"
     ry="215.87056" />
  <path
     d="M375.53652,314.45654a8,8,0,0,0,0,16H476.09658v-3.49a14.97671,14.97671,0,0,1,6.73974-12.51Z"
     transform="translate(-204.57225 -97.18115)"
     fill="#e6e6e6"
     id="path2" />
  <path
     d="M467.04134,296.45654h-34a8,8,0,1,1,0-16h34a8,8,0,0,1,0,16Z"
     transform="translate(-204.57225 -97.18115)"
     fill="#e6e6e6"
     id="path4" />
  <path
     d="M390.78585,239.45654h-132a8,8,0,1,1,0-16h132a8,8,0,0,1,0,16Z"
     transform="translate(-204.57225 -97.18115)"
     fill="#e6e6e6"
     id="path6" />
  <path
     d="M333.28585,205.45654h-17a8,8,0,1,1,0-16h17a8,8,0,0,1,0,16Z"
     transform="translate(-204.57225 -97.18115)"
     fill="#e6e6e6"
     id="path8" />
  <path
     d="M475.09243,475.35107h-124.438a17.01916,17.01916,0,0,1-17-17V261.51123a17.01917,17.01917,0,0,1,17-17H549.42812a17.01917,17.01917,0,0,1,17,17v48.7876h-2v-48.7876a15.017,15.017,0,0,0-15-15H350.65444a15.017,15.017,0,0,0-15,15V458.35107a15.017,15.017,0,0,0,15,15h124.438Z"
     transform="translate(-204.57225 -97.18115)"
     fill="#ccc"
     id="path10"
     style="fill:#808080" />
  <path
     d="M334.65444,357.51514H243.94509a17.01917,17.01917,0,0,1-17-17V180.45654a17.01917,17.01917,0,0,1,17-17H405.62648a17.01917,17.01917,0,0,1,17,17v65.05469h-2V180.45654a15.017,15.017,0,0,0-15-15H243.94509a15.017,15.017,0,0,0-15,15v160.0586a15.017,15.017,0,0,0,15,15h90.70935Z"
     transform="translate(-204.57225 -97.18115)"
     fill="#ccc"
     id="path12"
     style="fill:#808080" />
  <path
     d="M739.53652,314.45654a14.97671,14.97671,0,0,1,6.73974,12.51v3.49H846.83632a8,8,0,0,0,0-16Z"
     transform="translate(-204.57225 -97.18115)"
     fill="#e6e6e6"
     id="path14" />
  <path
     d="M747.3315,288.45654a8.00917,8.00917,0,0,1,8-8h34a8,8,0,1,1,0,16h-34A8.00916,8.00916,0,0,1,747.3315,288.45654Z"
     transform="translate(-204.57225 -97.18115)"
     fill="#e6e6e6"
     id="path16" />
  <path
     d="M823.587,231.45654a8.00917,8.00917,0,0,1,8-8h132a8,8,0,1,1,0,16h-132A8.00916,8.00916,0,0,1,823.587,231.45654Z"
     transform="translate(-204.57225 -97.18115)"
     fill="#e6e6e6"
     id="path18" />
  <path
     d="M881.087,197.45654a8.00917,8.00917,0,0,1,8-8h17a8,8,0,1,1,0,16h-17A8.00916,8.00916,0,0,1,881.087,197.45654Z"
     transform="translate(-204.57225 -97.18115)"
     fill="#e6e6e6"
     id="path20" />
  <path
     d="M747.28041,475.35107h124.438a17.01916,17.01916,0,0,0,17-17V261.51123a17.01917,17.01917,0,0,0-17-17H672.94472a17.01917,17.01917,0,0,0-17,17v48.7876h2v-48.7876a15.017,15.017,0,0,1,15-15H871.7184a15.017,15.017,0,0,1,15,15V458.35107a15.017,15.017,0,0,1-15,15h-124.438Z"
     transform="translate(-204.57225 -97.18115)"
     fill="#ccc"
     id="path22"
     style="fill:#808080;fill-opacity:1" />
  <path
     d="M887.7184,357.51514h90.70935a17.01917,17.01917,0,0,0,17-17V180.45654a17.01917,17.01917,0,0,0-17-17H816.74636a17.01917,17.01917,0,0,0-17,17v65.05469h2V180.45654a15.017,15.017,0,0,1,15-15H978.42775a15.017,15.017,0,0,1,15,15v160.0586a15.017,15.017,0,0,1-15,15H887.7184Z"
     transform="translate(-204.57225 -97.18115)"
     fill="#ccc"
     id="path24"
     style="fill:#808080;fill-opacity:1" />
  <path
     d="M730.85634,309.96655H491.09658a17.03389,17.03389,0,0,0-17,17v237.49a17.01782,17.01782,0,0,0,17,17H730.85634a17.01783,17.01783,0,0,0,17-17v-237.49A17.01784,17.01784,0,0,0,730.85634,309.96655Zm15,254.49a15.01828,15.01828,0,0,1-15,15H491.09658a15.01828,15.01828,0,0,1-15-15v-237.49a15.02322,15.02322,0,0,1,15-15H730.85634a15.01828,15.01828,0,0,1,15,15Z"
     transform="translate(-204.57225 -97.18115)"
     fill="#3f3d56"
     id="path26"
     style="fill:#007aef;fill-opacity:1" />
  <path
     d="M711.97561,402.45654h-202a8,8,0,1,1,0-16h202a8,8,0,0,1,0,16Z"
     transform="translate(-204.57225 -97.18115)"
     fill="#ccc"
     id="path28" />
  <path
     d="M654.47561,368.45654h-87a8,8,0,1,1,0-16h87a8,8,0,0,1,0,16Z"
     transform="translate(-204.57225 -97.18115)"
     fill="#6c63ff"
     id="path30"
     style="fill:#007aef;fill-opacity:1" />
  <path
     d="M596.47561,450.45654h-87a8,8,0,1,1,0-16h87a8,8,0,0,1,0,16Z"
     transform="translate(-204.57225 -97.18115)"
     fill="#ccc"
     id="path32" />
  <path
     d="M596.47561,485.45654h-87a8,8,0,1,1,0-16h87a8,8,0,0,1,0,16Z"
     transform="translate(-204.57225 -97.18115)"
     fill="#ccc"
     id="path34" />
  <path
     d="M596.47561,520.45654h-87a8,8,0,1,1,0-16h87a8,8,0,0,1,0,16Z"
     transform="translate(-204.57225 -97.18115)"
     fill="#ccc"
     id="path36" />
  <circle
     id="fc69f6bd-6aec-467a-b158-496b315f473e"
     data-name="Ellipse 44"
     cx="500.40945"
     cy="345.20452"
     r="14.92913"
     fill="#6c63ff"
     style="fill:#007aef;fill-opacity:1" />
  <path
     id="f31c0d86-d70b-4e63-97a7-2fc94b4d7c12-3515"
     data-name="Path 395"
     d="M703.5023,448.0807a1.54842,1.54842,0,0,1-.93151-.30958l-.01666-.0125-3.50855-2.68392a1.55917,1.55917,0,0,1,1.89726-2.47477l2.27256,1.7427,5.37016-7.006a1.55853,1.55853,0,0,1,2.18512-.28862l.00045.00034-.03333.04628.03423-.04628a1.56039,1.56039,0,0,1,.28829,2.18555l-6.31649,8.23688a1.55948,1.55948,0,0,1-1.24016.608Z"
     transform="translate(-204.57225 -97.18115)"
     fill="#fff" />
  <path
     d="M324.78579,143.59033a23.20459,23.20459,0,1,1,23.20471-23.20459A23.231,23.231,0,0,1,324.78579,143.59033Zm0-44.40918a21.20459,21.20459,0,1,0,21.20471,21.20459A21.22862,21.22862,0,0,0,324.78579,99.18115Z"
     transform="translate(-204.57225 -97.18115)"
     fill="#ccc"
     id="path40"
     style="fill:#808080" />
  <path
     id="b565f894-1e41-4a11-b880-46bff78dfbdf-3516"
     data-name="Path 395"
     d="M322.58542,128.85612a2.303,2.303,0,0,1-1.38548-.46045l-.02478-.01859-5.21841-3.99191a2.319,2.319,0,1,1,2.82188-3.68082l3.38007,2.592,7.98727-10.42029a2.318,2.318,0,0,1,3.25-.42928l.00067.00051-.04957.06883.05091-.06883a2.32082,2.32082,0,0,1,.42878,3.25065L324.432,127.949a2.31945,2.31945,0,0,1-1.84454.90437Z"
     transform="translate(-204.57225 -97.18115)"
     fill="#ccc"
     style="fill:#808080;fill-opacity:1" />
  <path
     d="M471.98159,224.59033a23.20459,23.20459,0,1,1,23.20483-23.20459A23.23088,23.23088,0,0,1,471.98159,224.59033Zm0-44.40918a21.20459,21.20459,0,1,0,21.20483,21.20459A21.22859,21.22859,0,0,0,471.98159,180.18115Z"
     transform="translate(-204.57225 -97.18115)"
     fill="#ccc"
     id="path43"
     style="fill:#808080" />
  <path
     id="a1067fe6-b388-4736-89af-b6090c7ddfc7-3517"
     data-name="Path 395"
     d="M469.78133,209.85612a2.303,2.303,0,0,1-1.38548-.46045l-.02478-.01859-5.21841-3.99191a2.319,2.319,0,1,1,2.82188-3.68082l3.38007,2.592,7.98727-10.42029a2.318,2.318,0,0,1,3.25-.42928l.00067.00051-.04957.06883.05091-.06883a2.32082,2.32082,0,0,1,.42878,3.25065L471.6279,208.949a2.31945,2.31945,0,0,1-1.84454.90437Z"
     transform="translate(-204.57225 -97.18115)"
     fill="#ccc"
     style="fill:#808080;fill-opacity:1" />
  <circle
     id="a6907563-545c-4a91-99f2-6d7f4e57ba01"
     data-name="Ellipse 44"
     cx="500.40945"
     cy="380.20452"
     r="14.92913"
     fill="#6c63ff"
     style="fill:#007aef;fill-opacity:1" />
  <path
     id="f071b9ad-7606-418c-8652-2e0910ae4e99-3518"
     data-name="Path 395"
     d="M703.5023,483.0807a1.54842,1.54842,0,0,1-.93151-.30958l-.01666-.0125-3.50855-2.68392a1.55917,1.55917,0,0,1,1.89726-2.47477l2.27256,1.7427,5.37016-7.006a1.55853,1.55853,0,0,1,2.18512-.28862l.00045.00034-.03333.04628.03423-.04628a1.56039,1.56039,0,0,1,.28829,2.18555l-6.31649,8.23688a1.55948,1.55948,0,0,1-1.24016.608Z"
     transform="translate(-204.57225 -97.18115)"
     fill="#fff" />
  <circle
     id="a9a7744d-510c-41c6-a641-cf6a8a976d00"
     data-name="Ellipse 44"
     cx="500.40945"
     cy="415.27539"
     r="14.92913"
     fill="#6c63ff"
     style="fill:#007aef;fill-opacity:1" />
  <path
     id="ee4f98ac-d41c-4601-9f0c-7c3b6a7a76ac-3519"
     data-name="Path 395"
     d="M703.5023,518.15157a1.54842,1.54842,0,0,1-.93151-.30958l-.01666-.0125-3.50855-2.68393a1.55917,1.55917,0,0,1,1.89726-2.47476l2.27256,1.7427,5.37016-7.006a1.55852,1.55852,0,0,1,2.18512-.28862l.00045.00033-.03333.04628.03423-.04628a1.56039,1.56039,0,0,1,.28829,2.18555l-6.31649,8.23689a1.55948,1.55948,0,0,1-1.24016.60805Z"
     transform="translate(-204.57225 -97.18115)"
     fill="#fff" />
  <path
     d="M610.9977,289.59033c-15.74927-.26855-22.90625-12.21777-22.90552-23.20654.001-10.98877,7.15869-22.93652,22.87256-23.20264h.03394c15.71582.26807,22.873,12.21729,22.87231,23.20606S626.71205,289.32422,610.9977,289.59033Zm-.01587-44.40918c-14.352.251-20.88892,11.165-20.88965,21.20264-.00073,10.042,6.541,20.96142,20.90576,21.20654,14.32959-.24316,20.87232-11.16162,20.87305-21.20312C631.87148,256.34961,625.33388,245.43555,610.98183,245.18115Z"
     transform="translate(-204.57225 -97.18115)"
     fill="#6c63ff"
     id="path50"
     style="fill:#007aef;fill-opacity:1" />
  <path
     d="M616.1897,267.64593c4.0141,6.97343-7.00451,9.69688-11.22,5.49609l1.05591-2.25634c6.85387,5.92038,12.89281-4.33445,2.42407-3.35987v-2.47216c9.58671.77313,4.20182-8.87658-2.18408-3.168l-1.032-2.25586c5.20456-5.40159,16.88873,1.1299,8.64014,6.52783A4.11165,4.11165,0,0,1,616.1897,267.64593Z"
     transform="translate(-204.57225 -97.18115)"
     fill="#6c63ff"
     id="path52"
     style="fill:#007aef;fill-opacity:1" />
  <path
     d="M751.98159,224.59033a23.20459,23.20459,0,1,1,23.20483-23.20459A23.23088,23.23088,0,0,1,751.98159,224.59033Zm0-44.40918a21.20459,21.20459,0,1,0,21.20483,21.20459A21.22859,21.22859,0,0,0,751.98159,180.18115Z"
     transform="translate(-204.57225 -97.18115)"
     fill="#ccc"
     id="path54"
     style="fill:#808080;fill-opacity:1" />
  <path
     d="M758.42567,206.59368h-2.42408v3.33594h-3.02392v-3.33594h-7.43994v-2.30419l7.99194-11.44776h2.47192v11.32813h2.42408Zm-5.448-2.42382v-6.5044l-4.512,6.5044Z"
     transform="translate(-204.57225 -97.18115)"
     fill="#ccc"
     id="path56"
     style="fill:#808080;fill-opacity:1" />
  <path
     d="M897.58705,143.59033a23.20459,23.20459,0,1,1,23.20484-23.20459A23.23109,23.23109,0,0,1,897.58705,143.59033Zm0-44.40918a21.20459,21.20459,0,1,0,21.20484,21.20459A21.22864,21.22864,0,0,0,897.58705,99.18115Z"
     transform="translate(-204.57225 -97.18115)"
     fill="#ccc"
     id="path58"
     style="fill:#808080;fill-opacity:1" />
  <path
     d="M901.04311,118.59784a4.76509,4.76509,0,0,1,1.896,1.91992,5.8622,5.8622,0,0,1,.67187,2.84375,5.66338,5.66338,0,0,1-.76807,2.96435,5.14271,5.14271,0,0,1-2.208,1.9917,7.46881,7.46881,0,0,1-3.33594.708,9.61289,9.61289,0,0,1-3.168-.54,7.35773,7.35773,0,0,1-2.56787-1.45166l1.032-2.25635a7.77012,7.77012,0,0,0,4.752,1.77637,3.45143,3.45143,0,0,0,2.46-.8042,3.44028,3.44028,0,0,0-.02393-4.56006,3.21412,3.21412,0,0,0-2.34009-.852,4.8557,4.8557,0,0,0-1.896.37207,4.48207,4.48207,0,0,0-1.56006,1.0918h-1.87183V111.74578H902.819v2.39991h-7.67993v4.65576a5.30553,5.30553,0,0,1,3.072-.8877A5.70865,5.70865,0,0,1,901.04311,118.59784Z"
     transform="translate(-204.57225 -97.18115)"
     fill="#ccc"
     id="path60"
     style="fill:#808080;fill-opacity:1" />
  <path
     d="M352.76658,618.03129a10.05576,10.05576,0,0,1,6.68-13.89722l3.03148-35.606,14.57923,11.50129-5.1139,32.04882a10.11027,10.11027,0,0,1-19.17685,5.95314Z"
     transform="translate(-204.57225 -97.18115)"
     fill="#ffb8b8"
     id="path62" />
  <path
     d="M362.143,600.39705a4.49721,4.49721,0,0,1-3.90353-4.27067l-1.68789-40.40688a89.09911,89.09911,0,0,1,8.60967-42.09305l14.96788-31.36456a13.43048,13.43048,0,0,1,10.08711-7.0092,12.88057,12.88057,0,0,1,11.23477,3.98922,16.88976,16.88976,0,0,1,1.9231,2.48163,12.92189,12.92189,0,0,1,.68213,12.30411l-22.95137,62.69962-1.7658,40.84776a4.50058,4.50058,0,0,1-5.02847,4.274l-12.10806-1.44407Z"
     transform="translate(-204.57225 -97.18115)"
     fill="#6c63ff"
     id="path64"
     style="fill:#007aef;fill-opacity:1" />
  <polygon
     points="114.63 679.762 125.856 684.69 150.204 643.734 133.636 636.462 114.63 679.762"
     fill="#ffb8b8"
     id="polygon66" />
  <path
     d="M317.94754,772.02123l22.10781,9.704.0009.00039a15.38605,15.38605,0,0,1,7.904,20.27329l-.201.45782-36.197-15.88844Z"
     transform="translate(-204.57225 -97.18115)"
     fill="#2f2e41"
     id="path68" />
  <polygon
     points="265.342 693.391 277.602 693.391 283.434 646.103 265.34 646.104 265.342 693.391"
     fill="#ffb8b8"
     id="polygon70" />
  <path
     d="M466.78716,786.57l24.1438-.001h.001a15.38605,15.38605,0,0,1,15.38648,15.38623v.5l-39.53052.00146Z"
     transform="translate(-204.57225 -97.18115)"
     fill="#2f2e41"
     id="path72" />
  <path
     d="M346.43225,777.12817a4.52688,4.52688,0,0,1-1.38868-.21972L324.256,770.22681a4.51916,4.51916,0,0,1-2.92652-5.59961l68.9353-219.51563,51.63477-10.125.18164.2959c34.13672,55.54785,45.53174,140.40137,52.76025,230.30762a4.526,4.526,0,0,1-4.04,4.84179l-22.72608,2.27247a4.47392,4.47392,0,0,1-4.79028-3.29786l-41.61182-147.207a1.50024,1.50024,0,0,0-2.82519-.20019L350.55285,774.40649A4.48315,4.48315,0,0,1,346.43225,777.12817Z"
     transform="translate(-204.57225 -97.18115)"
     fill="#2f2e41"
     id="path74" />
  <circle
     cx="212.3703"
     cy="335.46934"
     r="24.56103"
     fill="#ffb8b8"
     id="circle76" />
  <path
     d="M385.87243,551.61157,385.704,551.26c-.11425-.23926-11.43017-24.24512-10.37719-51.93457a35.6575,35.6575,0,0,1,34.9082-34.2832h0a35.59915,35.59915,0,0,1,35.64136,28.79882c3.15356,16.09864,3.0747,31.34668-.23462,45.31836l-.07373.31055-.31324.06445Z"
     transform="translate(-204.57225 -97.18115)"
     fill="#6c63ff"
     id="path78"
     style="fill:#007aef;fill-opacity:1" />
  <path
     d="M511.09616,586.26057a10.05579,10.05579,0,0,1-8.06448-13.1423L474.742,551.2854l17.56457-6.02657,24.1715,21.65681a10.11027,10.11027,0,0,1-5.38193,19.34493Z"
     transform="translate(-204.57225 -97.18115)"
     fill="#ffb8b8"
     id="path80" />
  <path
     d="M441.67292,538.12873l-.0654-.10563-29.82327-48.29827a13.42932,13.42932,0,0,1-.429-12.27495,12.87649,12.87649,0,0,1,9.43853-7.28423h0a16.85435,16.85435,0,0,1,3.12653-.27252,12.92087,12.92087,0,0,1,10.71335,6.09016l40.27682,53.253,33.38133,23.60723a4.49959,4.49959,0,0,1,.86955,6.54188l-7.77148,9.39628a4.48311,4.48311,0,0,1-5.74532,1.01332Z"
     transform="translate(-204.57225 -97.18115)"
     fill="#6c63ff"
     id="path82"
     style="fill:#007aef;fill-opacity:1" />
  <path
     d="M412.55028,431.12649c1.81023-2.97777,5.805-3.819,9.27322-3.47935s6.841,1.55875,10.32574,1.53174c9.67615-.075,17.14516-11.8682,13.077-20.64791-3.33632-7.2003-11.66886-10.362-19.2066-12.84345-15.80415-5.20283-33.95835-10.20184-48.29972-1.76586a30.01039,30.01039,0,0,0-14.44477,26.741c.32255,6.63919,2.86521,13.45884.71479,19.7484-2.48082,7.25593-10.34666,11.14893-17.78013,13.03212-13.03063,3.30118-26.7696,2.76942-39.88173,5.73032s-26.54852,10.82279-30.083,23.79209c-2.32156,8.51874.10094,17.68937,4.11272,25.55475A66.18546,66.18546,0,0,0,372.69066,535.603c15.85168-9.25607,27.296-24.89963,34.11893-41.94069a140.43809,140.43809,0,0,0,8.1175-30.84631c1.52807-9.88241.23148-19.86929-2.53628-29.47849A2.70887,2.70887,0,0,1,412.55028,431.12649Z"
     transform="translate(-204.57225 -97.18115)"
     fill="#2f2e41"
     id="path84" />
  <path
     d="M586.57225,802.81885h-381a1,1,0,0,1,0-2h381a1,1,0,0,1,0,2Z"
     transform="translate(-204.57225 -97.18115)"
     fill="#3f3d56"
     id="path86" />
  <path
     style="fill:#ffffff;stroke-width:0.693965"
     d="m 318.13441,479.00969 c -0.0731,-4.41765 -0.60049,-5.22209 -6.94759,-10.59647 l -5.84199,-4.94668 0.22696,-3.13844 c 0.27845,-3.85031 1.0635,-3.13588 -18.9878,-17.27987 L 271.6875,432.54039 V 330.90831 c 0,-70.95349 0.22798,-102.53747 0.75526,-104.63148 0.94793,-3.76459 4.07205,-7.60579 7.81294,-9.60624 l 2.88223,-1.54128 h 122.13793 c 67.17586,0 123.25818,0.23883 124.62738,0.53073 3.26704,0.69652 8.12871,4.91795 9.73397,8.45209 1.22608,2.69936 1.27905,7.76915 1.29367,123.83106 0.0118,93.78074 -0.17684,121.65932 -0.83823,123.87284 -1.10161,3.68689 -5.60266,8.18794 -9.28955,9.28955 -2.20535,0.65895 -26.76083,0.85347 -107.73814,0.85347 H 318.18319 Z m 186.77943,-49.1962 c 10.25892,-3.07365 14.04123,-16.04833 7.05696,-24.20788 -9.32875,-10.89854 -26.58067,-4.69955 -26.52668,9.53161 0.019,5.01166 1.79299,9.0854 5.10839,11.73081 4.43394,3.53793 9.15323,4.50584 14.36133,2.94546 z m -109.25432,-7.28207 c 4.09033,-1.94098 5.59815,-7.04934 3.3589,-11.37957 -2.20514,-4.26427 -0.69845,-4.14108 -50.64773,-4.14108 -49.94928,0 -48.4426,-0.12319 -50.64774,4.14108 -1.38317,2.67477 -1.33437,5.92441 0.12612,8.39681 2.47712,4.19343 1.13421,4.08418 50.41674,4.10148 40.23578,0.0142 45.25614,-0.10438 47.39371,-1.11872 z m 113.45602,-29.76457 c 7.39972,-5.20072 8.5725,-16.36396 2.42936,-23.12426 -4.40133,-4.8435 -12.91572,-6.03717 -18.73542,-2.62659 -4.73837,2.77687 -6.93733,6.47711 -7.2618,12.21964 -0.29577,5.23415 1.00096,8.66323 4.50191,11.90497 3.64205,3.37239 5.74027,4.10763 11.12327,3.89771 4.24117,-0.16539 5.42974,-0.5053 7.94268,-2.27147 z m -111.40391,-6.85263 c 1.98783,-1.98782 2.35949,-2.85393 2.35949,-5.49847 0,-3.89128 -2.38617,-7.04293 -6.11681,-8.07908 -3.22735,-0.89637 -86.78157,-0.94805 -90.62717,-0.0561 -1.49142,0.34594 -3.52127,1.43858 -4.51078,2.42809 -1.50469,1.50469 -1.79912,2.4305 -1.79912,5.65709 0,3.48038 0.22181,4.05614 2.26634,5.88293 l 2.26633,2.02499 h 46.90112 46.90112 z m 107.91865,-26.46705 c 9.86147,-3.47932 13.16719,-15.95665 6.34052,-23.93208 -9.31243,-10.87947 -26.58057,-4.67465 -26.52668,9.53161 0.0418,11.02713 9.87173,18.03962 20.18616,14.40047 z m -109.70024,-6.92444 c 5.62659,-2.90962 5.37632,-12.20541 -0.3935,-14.6162 -3.64107,-1.52133 -91.06504,-1.46024 -94.28112,0.0659 -5.73268,2.72033 -6.08843,11.53117 -0.58614,14.51668 2.88925,1.56769 92.23322,1.59924 95.26076,0.0337 z m 115.94039,-48.41772 c 4.53841,-3.05405 4.96173,-9.23643 0.8941,-13.05792 l -1.77061,-1.66347 -103.51852,-0.18283 c -76.73613,-0.13551 -104.01834,0.0235 -105.45043,0.61441 -4.39077,1.8119 -6.17628,8.06072 -3.47934,12.17677 2.50378,3.82126 -2.7368,3.64336 108.18903,3.67268 l 102.77775,0.0272 z m -57.87719,-33.77735 c 2.40326,-1.46535 4.37098,-4.61746 4.37098,-7.0019 0,-2.58104 -2.06949,-5.98738 -4.37384,-7.19924 -2.02637,-1.06567 -6.2319,-1.14868 -48.48542,-0.95705 l -46.26658,0.20984 -1.79158,1.68338 c -3.95794,3.7189 -3.51281,10.05804 0.91552,13.03802 l 2.35802,1.58679 45.5256,-0.003 c 43.9289,-0.002 45.60353,-0.0501 47.7473,-1.35724 z"
     id="path1021" />
  <path
     style="fill:#ffffff;stroke-width:0.693965"
     d="m 543.72198,304.66148 v -71.14209 h 50.37892 c 46.23981,0 50.54358,-0.0973 52.38318,-1.18394 4.04935,-2.39201 5.23309,-8.84178 2.23148,-12.15852 -3.07956,-3.40287 -1.50682,-3.31271 -57.78434,-3.31271 H 538.1405 l -2.88321,-1.9084 -2.88321,-1.90841 -39.43381,-0.19012 -39.43381,-0.19013 v -24.79721 c 0,-14.06532 0.29341,-25.82028 0.67796,-27.16111 1.03916,-3.62334 3.88843,-7.26677 7.13869,-9.12844 l 2.93982,-1.68385 102.62482,-0.18251 102.62483,-0.18251 3.62612,1.6601 c 4.05369,1.85584 6.76602,4.96415 7.95327,9.1144 0.58415,2.04201 0.73963,29.57493 0.58812,104.14565 l -0.20596,101.36978 -1.91433,2.89261 c -1.05288,1.59094 -3.21595,3.75406 -4.80683,4.80694 l -2.89249,1.91433 -64.06925,0.18411 -64.06925,0.18411 z m 45.13047,-106.19909 c 4.67983,-2.42004 5.397,-9.1142 1.4044,-13.1088 l -2.14562,-2.14669 -19.39368,-0.20429 c -21.5244,-0.22673 -22.35605,-0.0864 -25.06271,4.22828 -2.47088,3.93886 -0.51071,9.80438 3.88395,11.62213 0.76336,0.31575 9.91319,0.59388 20.33295,0.61808 15.63921,0.0363 19.30025,-0.13971 20.98071,-1.00871 z"
     id="path1060" />
  <path
     style="fill:#ffffff;stroke-width:0.693965"
     d="m 684.44143,208.71013 c -0.19077,-48.92669 -0.19671,-49.10792 -1.7026,-51.92126 -0.83114,-1.55276 -2.76432,-3.95534 -4.29594,-5.33907 -5.09875,-4.60642 -5.77993,-4.67609 -45.71455,-4.67609 h -35.65551 l 0.21574,-33.48384 c 0.21097,-32.743866 0.24875,-33.545181 1.70962,-36.259698 1.73119,-3.2168 3.76833,-5.211748 7.18068,-7.031971 2.32648,-1.240993 5.92331,-1.303397 85.31553,-1.480192 93.55681,-0.208337 87.83752,-0.514381 92.8936,4.97082 1.55573,1.687764 3.16543,4.319806 3.57725,5.84921 0.5209,1.934452 0.69258,27.876471 0.56416,85.247171 l -0.18459,82.46651 -1.49388,2.77586 c -1.8751,3.4842 -4.05197,5.53214 -7.34136,6.90654 -2.23278,0.93292 -8.63608,1.07407 -48.72367,1.07407 h -46.15305 z m 78.32585,-67.23474 c 5.8895,-2.79475 5.87658,-11.59751 -0.0211,-14.39615 -2.19867,-1.04334 -8.45978,-1.12832 -70.80184,-0.96103 l -68.38991,0.18351 -2.2686,2.26874 c -1.94485,1.94497 -2.26859,2.75401 -2.26859,5.6693 0,3.57859 1.8073,6.44633 4.85776,7.70809 0.76336,0.31575 31.78847,0.59388 68.94468,0.61807 61.14703,0.0398 67.78361,-0.0636 69.9476,-1.09053 z m -57.72212,-33.85607 c 5.76982,-2.41078 6.02009,-11.706575 0.3935,-14.616195 -2.908,-1.503786 -21.41539,-1.504188 -24.58411,-5.33e-4 -5.8414,2.77193 -5.96303,11.640678 -0.19862,14.483438 3.01305,1.4859 20.91778,1.58376 24.38923,0.13329 z"
     id="path1099" />
  <path
     style="fill:#ffffff;stroke-width:0.693965"
     d="m 227.27371,374.26764 c -2.55995,-2.16685 -9.99751,-5.39505 -13.55246,-5.88231 -3.34501,-0.45849 -3.60862,-1.00342 -2.6951,-5.57103 0.37638,-1.88189 0.73536,-2.09446 4.68426,-2.77378 8.71087,-1.49851 15.59754,-6.53437 19.07124,-13.9458 1.58243,-3.37626 1.8748,-4.97279 1.95559,-10.67929 0.0855,-6.04011 0.27119,-6.94055 1.8608,-9.02463 2.42018,-3.17302 3.24894,-5.62071 3.24894,-9.59554 0,-4.43771 -0.92392,-6.71806 -4.03162,-9.9505 -5.58725,-5.81152 -23.93298,-12.42528 -40.21195,-14.49669 -16.80665,-2.13854 -30.26131,4.23365 -36.37865,17.22912 -2.57618,5.47275 -3.11723,11.39463 -1.95943,21.44645 0.73536,6.38436 0.73984,8.45802 0.0238,11.01551 -2.14601,7.6648 -10.72645,12.96071 -24.8333,15.32728 l -2.94936,0.49479 v -98.385 c 0,-98.37577 1.4e-4,-98.38528 1.45025,-101.3808 1.73334,-3.58061 5.27812,-6.66701 8.9053,-7.75374 3.70288,-1.10941 203.19733,-1.12473 207.20264,-0.0159 1.72109,0.47646 3.99508,1.99123 5.98448,3.98643 4.56002,4.57331 4.77199,6.10494 4.77199,34.48058 v 23.90765 l -38.68858,0.007 -38.68858,0.007 -3.81681,1.90163 -3.81681,1.90162 -53.59576,0.34699 -53.59576,0.34698 -2.14643,2.1467 c -2.68273,2.68306 -3.39988,6.70377 -1.76101,9.87301 2.30538,4.45807 0.12195,4.28843 55.20028,4.28843 h 49.99998 v 71.13147 71.13146 l -19.95151,-0.0231 c -19.28995,-0.0224 -20.00904,-0.0718 -21.68642,-1.4916 z m 40.55383,-176.79289 c 0.99077,-0.93135 2.14873,-2.85262 2.57323,-4.2695 0.64843,-2.16424 0.56334,-3.00309 -0.53214,-5.2463 -2.36125,-4.83512 -3.61576,-5.09673 -24.44694,-5.09796 -14.90419,-9e-4 -18.69519,0.19347 -20.50248,1.05108 -4.16081,1.97444 -5.75963,7.15508 -3.53549,11.45609 2.07397,4.0106 2.88295,4.14013 24.74573,3.96203 l 19.89669,-0.16209 z"
     id="path1138" />
  <path
     style="fill:#ffffff;stroke-width:0.693965"
     d="m 33.304392,256.51396 c -3.498624,-1.58939 -6.985589,-5.51146 -7.932924,-8.9228 -0.48942,-1.76239 -0.724226,-29.56771 -0.716581,-84.85625 0.01081,-78.150199 0.07435,-82.372791 1.279251,-85.010773 0.697335,-1.526724 2.323571,-3.802898 3.613858,-5.058165 4.655822,-4.529457 0.705419,-4.351897 92.285184,-4.147963 l 82.88665,0.184577 2.77586,1.493887 c 3.4842,1.875095 5.53214,4.051965 6.90653,7.341355 0.91882,2.199043 1.07407,7.384519 1.07407,35.874662 v 33.30406 l -36.95366,0.20207 c -36.61314,0.20021 -36.98011,0.21621 -39.82283,1.73669 -3.65165,1.95314 -6.6297,4.93119 -8.30551,8.3055 -1.2498,2.51655 -1.32643,5.14603 -1.50814,51.74932 l -0.19143,49.09806 -46.304259,-0.0153 c -43.287614,-0.0142 -46.485485,-0.0976 -49.086069,-1.27899 z M 189.86472,141.53527 c 2.47671,-1.28075 4.7864,-4.81221 4.79001,-7.32381 0.003,-2.26641 -2.61655,-6.22563 -4.876,-7.36892 -1.33593,-0.676 -16.68661,-0.8696 -69.58367,-0.87757 -74.515835,-0.0112 -70.741243,-0.22484 -72.993658,4.13085 -2.211421,4.27641 -0.617266,9.7818 3.329499,11.49836 1.832154,0.79686 13.766972,0.96606 69.733089,0.98857 59.63898,0.024 67.76524,-0.0983 69.60073,-1.04748 z m -55.42039,-35.54538 c 1.95042,-1.95202 2.26688,-2.7494 2.26688,-5.71187 0,-2.96245 -0.31647,-3.759874 -2.26682,-5.711873 l -2.26681,-2.268734 -10.82747,-0.223542 c -11.70983,-0.241759 -13.87514,0.183216 -16.23785,3.186926 -1.5188,1.930838 -1.85878,6.960613 -0.62616,9.263773 0.40604,0.75869 1.73325,1.99769 2.94935,2.75333 2.00608,1.24649 3.25569,1.35566 13.47655,1.1773 l 11.26545,-0.19658 z"
     id="path1177" />
  <path
     style="fill:#ffffff;stroke-width:0.693965"
     d="m 114.85129,43.459415 c -6.51302,-2.144338 -12.25069,-7.441948 -14.17417,-13.087049 -1.420032,-4.167556 -1.391023,-10.164907 0.0699,-14.461028 1.65223,-4.85852 7.66421,-10.7147752 12.6225,-12.2955263 10.40047,-3.31577342 21.03145,1.206258 25.78604,10.9684413 2.45965,5.050187 2.36337,12.475612 -0.22677,17.488456 -3.80545,7.364921 -9.80076,11.329705 -17.7329,11.727013 -2.53535,0.126992 -5.39044,-0.02615 -6.34464,-0.340307 z m 10.33363,-19.023812 c 2.71349,-3.56302 4.93361,-6.994443 4.93361,-7.625383 0,-1.448037 -2.47613,-2.821117 -3.77402,-2.09279 -0.53887,0.302396 -2.61498,2.735803 -4.61358,5.40757 -1.99859,2.671767 -3.72312,4.971451 -3.83229,5.110409 -0.10916,0.138958 -1.27269,-0.41125 -2.58562,-1.222684 -2.48165,-1.533743 -4.23396,-1.398304 -4.91636,0.379997 -0.6201,1.615968 0.66755,3.371946 4.17745,5.696808 2.43128,1.610413 3.52727,1.974903 4.45132,1.480365 0.67424,-0.360841 3.44601,-3.571272 6.15949,-7.134292 z"
     id="path1216" />
  <path
     style="fill:#ffffff;stroke-width:0.693965"
     d="m 263.01293,124.65271 c -9.32467,-2.42391 -15.48813,-9.61281 -16.14794,-18.83453 -0.44496,-6.218836 1.07625,-10.695464 5.18878,-15.26958 4.20396,-4.675817 7.66409,-6.371959 13.81896,-6.773994 9.08735,-0.593584 16.2399,3.482219 20.17559,11.496839 2.72106,5.541165 2.7541,12.780015 0.0814,17.844935 -2.31935,4.39535 -6.2578,8.2099 -10.33332,10.00825 -3.62256,1.59846 -9.71236,2.32641 -12.78351,1.52808 z m 8.95764,-18.64948 c 5.29887,-6.85518 5.93428,-8.251825 4.43589,-9.750214 -1.68127,-1.681274 -3.19988,-0.712293 -7.42378,4.736914 l -4.31727,5.56967 -1.78729,-1.40588 c -2.24835,-1.76855 -4.11949,-1.79387 -5.04303,-0.0682 -0.97733,1.82617 -0.44141,2.8021 2.95909,5.3886 4.56997,3.47601 5.24122,3.20749 11.17639,-4.47087 z"
     id="path1255" />
  <path
     style="fill:#ffffff;stroke-width:0.693965"
     d="m 398.19387,188.37999 c -4.43785,-1.75692 -9.32665,-6.93696 -10.89725,-11.54643 -0.60765,-1.78334 -1.10481,-5.47907 -1.10481,-8.21272 0,-4.1556 0.34803,-5.66675 2.12331,-9.2194 3.594,-7.19224 9.5479,-10.69068 18.37341,-10.796 4.00722,-0.0478 5.59019,0.28798 8.83019,1.87316 14.90717,7.2934 15.06327,29.74482 0.25993,37.38569 -4.21792,2.17712 -12.75571,2.4275 -17.58478,0.5157 z m 12.84984,-11.7928 c 1.73595,-1.61728 1.98544,-4.62123 0.54717,-6.58817 -0.83283,-1.13898 -0.83283,-1.52689 0,-2.71593 1.38843,-1.98226 1.20676,-3.39137 -0.66379,-5.14866 -2.24177,-2.10604 -5.9238,-2.60837 -8.67831,-1.18395 -1.87918,0.97176 -2.09424,1.3376 -1.47093,2.50225 0.82637,1.54409 1.4583,1.69733 2.53976,0.61586 1.19616,-1.19615 4.68563,-0.48558 4.96995,1.01205 0.28683,1.51087 -0.95515,2.48623 -3.18519,2.5014 -2.74486,0.0187 -1.95786,2.4435 1.03358,3.18458 3.23777,0.8021 3.82279,2.70689 1.19858,3.90256 -1.54199,0.70257 -2.19683,0.65102 -3.86076,-0.30394 -1.92296,-1.10363 -2.03555,-1.09068 -2.79109,0.32105 -1.1229,2.09817 0.81936,3.31586 5.28893,3.31586 2.61671,0 3.95365,-0.37296 5.0721,-1.41496 z"
     id="path1294" />
  <path
     style="fill:#ffffff;stroke-width:0.693965"
     d="m 542.84374,124.54333 c -13.05028,-3.26252 -19.92421,-17.50941 -14.14616,-29.319326 3.51623,-7.186923 9.55326,-11.050551 17.92883,-11.474245 4.56033,-0.230693 5.86785,-0.02179 9.02155,1.441347 7.59183,3.522191 11.7152,9.585235 12.21566,17.962014 0.27362,4.57981 0.0825,5.81587 -1.39957,9.05322 -0.94406,2.06208 -2.72117,4.89353 -3.94915,6.29212 -4.29947,4.89683 -13.2551,7.64886 -19.67116,6.04487 z m 9.20582,-13.16187 c 0,-0.77107 0.46265,-1.38793 1.04095,-1.38793 0.6477,0 1.04095,-0.65541 1.04095,-1.73491 0,-1.0795 -0.39325,-1.73491 -1.04095,-1.73491 -0.83854,0 -1.04095,-1.07951 -1.04095,-5.55173 0,-5.4082 -0.0434,-5.551722 -1.67714,-5.551722 -1.30904,0 -2.52755,1.213613 -5.55172,5.529442 -2.22753,3.17892 -3.87458,6.2764 -3.87458,7.28663 0,1.646 0.21958,1.7572 3.46982,1.7572 3.00719,0 3.46983,0.18506 3.46983,1.38793 0,1.07951 0.46265,1.38794 2.0819,1.38794 1.61925,0 2.08189,-0.30843 2.08189,-1.38794 z"
     id="path1333" />
  <path
     style="fill:#ffffff;stroke-width:0.693965"
     d="M 686.32653,42.819782 C 668.68172,36.718213 667.32178,13.265436 684.0958,4.3498715 c 4.27494,-2.2721738 13.4256,-2.2360084 17.85032,0.070548 4.25678,2.2190164 7.40475,5.3225672 9.59425,9.4588905 1.56658,2.959523 1.83814,4.337346 1.84644,9.368535 0.009,5.252106 -0.21605,6.306354 -2.05005,9.61753 -5.0738,9.160427 -15.40972,13.27426 -25.01023,9.954407 z m 10.01823,-11.565668 c 2.24599,-1.161449 2.82549,-2.306665 2.82549,-5.583779 0,-3.075601 -2.82353,-5.425651 -6.06424,-5.047316 -2.07903,0.242714 -2.26334,0.106043 -2.26334,-1.678316 0,-1.89196 0.0994,-1.942548 3.81681,-1.942548 3.35416,0 3.81681,-0.168234 3.81681,-1.387931 0,-1.27227 -0.46265,-1.387931 -5.55173,-1.387931 h -5.55172 v 5.291487 5.291487 l 1.9084,-0.385129 c 1.04963,-0.211821 2.3858,-0.570033 2.96927,-0.796025 1.84374,-0.714121 3.71655,1.238781 3.19204,3.328567 -0.37398,1.490076 -0.86731,1.842889 -2.57683,1.842889 -1.16286,0 -2.75805,-0.344526 -3.54486,-0.765614 -1.09839,-0.587842 -1.56874,-0.547558 -2.02565,0.173491 -0.97598,1.540196 -0.72778,1.998616 1.63905,3.027339 2.92205,1.270043 4.9815,1.275415 7.4105,0.01933 z"
     id="path1372" />
  <path
     style="fill:#ffffff;stroke-width:0.693965"
     d="m 686.90384,43.10973 c -4.40089,-1.439676 -7.64837,-3.70863 -10.32465,-7.213647 -8.05218,-10.545627 -4.58032,-25.116567 7.51661,-31.5462115 2.37503,-1.2623538 4.04742,-1.5570894 8.82876,-1.5559471 5.04085,0.00121 6.40333,0.2685244 9.36854,1.8381127 4.57632,2.4224097 7.49457,5.5722369 9.76424,10.5390869 1.61577,3.535891 1.81648,4.71532 1.53521,9.021552 -0.51299,7.853868 -4.21817,13.71301 -11.00908,17.409085 -4.32135,2.351976 -11.10522,3.004406 -15.67963,1.507969 z m 8.70768,-11.607293 c 1.21005,-0.421828 2.50579,-1.338151 2.87942,-2.036274 2.21966,-4.147487 -0.8805,-9.369013 -5.25913,-8.857831 -2.2203,0.259207 -2.38914,0.141638 -2.38914,-1.663629 0,-1.89196 0.0994,-1.942548 3.81681,-1.942548 3.35416,0 3.81681,-0.168234 3.81681,-1.387931 0,-1.27227 -0.46265,-1.387931 -5.55173,-1.387931 h -5.55172 v 5.204741 c 0,5.572031 0.45027,6.126793 3.60323,4.43938 2.29072,-1.225952 4.87272,0.279319 4.59639,2.679634 -0.18156,1.577167 -0.59925,1.939319 -2.44234,2.117606 -1.22283,0.118288 -2.90204,-0.148167 -3.73157,-0.592122 -1.18869,-0.636168 -1.63434,-0.60822 -2.10334,0.131914 -0.97598,1.540196 -0.72778,1.998616 1.63905,3.027339 2.7716,1.20465 3.8638,1.24843 6.67726,0.267652 z"
     id="path1663" />
  <path
     style="fill:#ffffff;stroke-width:0.693965"
     d="m 684.45392,208.71013 c -0.20276,-48.81776 -0.21249,-49.11391 -1.70454,-51.87392 -1.94102,-3.59056 -5.41754,-6.89422 -8.90887,-8.46591 -2.54139,-1.14406 -5.90033,-1.26713 -39.76619,-1.45702 l -36.99033,-0.20742 0.21016,-33.44991 c 0.20753,-33.032504 0.22939,-33.485882 1.75144,-36.332144 2.00045,-3.740886 5.84165,-6.865009 9.60624,-7.812943 2.07719,-0.523044 28.04388,-0.75526 84.45408,-0.75526 91.79018,0 86.26401,-0.310748 91.28184,5.132962 1.54592,1.67712 3.14501,4.253072 3.55354,5.724337 1.04891,3.777542 1.04439,163.628248 -0.005,167.794748 -0.9727,3.86291 -4.28894,7.86041 -7.87022,9.48699 -2.65646,1.20654 -5.58604,1.28398 -49.11672,1.29831 l -46.29165,0.0152 z m 80.34956,-69.03938 c 3.32144,-3.62457 3.32144,-7.15228 0,-10.77685 l -2.3754,-2.59218 -68.58258,-0.17052 c -54.06769,-0.13443 -68.94534,0.0146 -70.29666,0.70408 -0.94274,0.48103 -2.45151,1.96304 -3.35282,3.29336 -1.82891,2.69946 -1.74856,5.77402 0.22981,8.79339 2.47523,3.77768 -0.005,3.66021 73.76666,3.49433 l 68.23559,-0.15343 z m -59.63534,-32.19967 c 1.31496,-0.62399 2.84551,-2.01377 3.40122,-3.08839 2.19756,-4.24961 0.6552,-9.37284 -3.40122,-11.297734 -3.1438,-1.491833 -20.14249,-1.628555 -23.54281,-0.189356 -3.60874,1.52742 -5.00896,3.598742 -5.00896,7.40971 0,2.74929 0.36004,3.7272 2.004,5.44312 2.48394,2.59268 2.76921,2.64686 14.5463,2.76267 7.60401,0.0748 10.10983,-0.14238 12.00147,-1.04002 z"
     id="path1702" />
  <path
     style="fill:#ffffff;stroke-width:0.693965"
     d="m 543.72198,304.66402 v -71.11829 l 50.96113,-0.18666 50.96115,-0.18666 2.11858,-2.02996 c 3.89168,-3.7289 3.36829,-9.75294 -1.10195,-12.68284 -1.78516,-1.17003 -5.25365,-1.26084 -55.24971,-1.44647 l -53.34496,-0.19807 -2.84594,-1.88383 -2.84594,-1.88383 -39.46509,-0.19544 -39.46508,-0.19545 0.20464,-26.17524 0.20463,-26.17525 1.92685,-3.27789 c 1.2495,-2.12559 3.07915,-3.95525 5.20475,-5.20474 l 3.27789,-1.92685 102.62482,-0.18251 102.62483,-0.18251 3.62612,1.6601 c 3.84036,1.75817 6.58007,4.77728 7.89261,8.69748 0.57599,1.72034 0.78981,29.6719 0.78981,103.24966 0,89.64209 -0.12016,101.17838 -1.07777,103.4708 -1.42919,3.42137 -4.19528,6.28224 -7.5968,7.85709 -2.63701,1.2209 -5.94345,1.28594 -66.10022,1.30043 l -63.32435,0.0152 z m 45.11858,-106.43466 c 1.68343,-0.89511 2.7143,-2.12089 3.39314,-4.03472 1.20337,-3.39261 0.66227,-5.78771 -1.97405,-8.73771 l -2.01078,-2.25003 h -20.03914 c -22.51549,0 -22.87514,0.0732 -24.97989,5.08522 -1.45044,3.45393 -0.14324,7.39495 3.19713,9.63892 2.31107,1.5525 2.73273,1.58404 21.17678,1.58404 16.98736,0 19.05408,-0.12512 21.23681,-1.28572 z"
     id="path1741" />
  <path
     style="fill:#ffffff;stroke-width:0.693965"
     d="m 318.18319,479.14872 c 0,-3.7294 -1.41132,-6.27353 -5.01036,-9.03199 -1.63364,-1.25208 -4.10032,-3.33897 -5.48152,-4.63752 -2.28881,-2.15185 -2.48172,-2.62329 -2.17756,-5.32173 0.31718,-2.81401 0.18371,-3.08143 -2.69347,-5.39683 -1.66495,-1.33987 -9.35094,-6.87908 -17.07998,-12.30937 l -14.0528,-9.87324 v -101.6509 c 0,-70.96706 0.22798,-102.55629 0.75526,-104.65031 0.94793,-3.76459 4.07205,-7.60579 7.81294,-9.60624 l 2.88223,-1.54128 h 122.13793 c 67.17586,0 123.25818,0.23883 124.62738,0.53073 3.26704,0.69652 8.12871,4.91795 9.73397,8.45209 1.22608,2.69936 1.27905,7.76915 1.29367,123.83106 0.0118,93.78074 -0.17684,121.65932 -0.83823,123.87284 -1.10161,3.68689 -5.60266,8.18794 -9.28955,9.28955 -2.20535,0.65895 -26.76083,0.85347 -107.73814,0.85347 H 318.18319 Z m 186.73065,-49.33523 c 10.92236,-3.27242 14.14689,-17.73136 5.73484,-25.71526 -5.58394,-5.29973 -14.57863,-5.35272 -20.37062,-0.12 -3.58003,3.23434 -5.10525,7.35042 -4.71629,12.72772 0.40328,5.57535 2.98319,9.37125 8.14993,11.99124 4.06594,2.06179 7.0529,2.35944 11.20214,1.1163 z m -108.56688,-7.47843 c 5.58104,-3.70881 4.56501,-12.8669 -1.61798,-14.58387 -3.62972,-1.00794 -89.08687,-1.00794 -92.71659,0 -4.67663,1.29867 -6.58686,6.48925 -4.22211,11.47259 0.61601,1.29815 1.1625,2.36497 1.21444,2.37072 0.0519,0.006 1.34355,0.465 2.87028,1.02056 4.06028,1.47751 92.22044,1.21622 94.47196,-0.28 z m 110.08742,-28.14033 c 10.79393,-4.51 12.2243,-19.88 2.46274,-26.46337 -3.82639,-2.58058 -7.23949,-3.24404 -11.73205,-2.28056 -11.8253,2.53607 -15.92857,17.37602 -7.11548,25.73398 4.07749,3.86692 11.20156,5.17563 16.38479,3.00995 z m -108.97658,-7.946 c 2.04453,-1.82678 2.26633,-2.40255 2.26633,-5.88293 0,-5.38952 -2.06724,-7.45738 -8.14327,-8.14573 -2.39145,-0.27093 -23.39746,-0.43903 -46.68,-0.37358 -46.08556,0.12958 -44.32866,-0.0261 -46.87721,4.15361 -1.61581,2.64998 -1.72254,5.38299 -0.31641,8.10215 2.27231,4.39417 -0.44024,4.17145 50.80691,4.17145 h 46.67731 z m 107.45604,-26.52576 c 6.22111,-1.86389 10.49435,-7.75808 10.49435,-14.47513 0,-12.98688 -14.68712,-19.93899 -24.69071,-11.68728 -3.44555,2.84216 -5.25393,6.83442 -5.27336,11.64167 -0.0421,10.40596 9.48585,17.51198 19.46972,14.52074 z m -108.24602,-7.71869 c 4.74098,-3.22172 4.37662,-11.1327 -0.63628,-13.81521 -1.38312,-0.74012 -10.87739,-0.92183 -48.1665,-0.92183 h -46.44383 l -2.37548,2.59218 c -4.43501,4.83959 -2.47768,11.47765 3.87022,13.1254 0.9542,0.24769 22.0334,0.40383 46.84267,0.34698 41.85218,-0.0959 45.23777,-0.19171 46.9092,-1.32752 z m 115.20261,-47.89927 c 4.42844,-2.98005 4.87347,-9.31936 0.91529,-13.03801 l -1.7918,-1.68338 -102.82455,-0.20474 c -73.25528,-0.14586 -103.58245,0.0147 -105.4601,0.55828 -4.83939,1.40103 -6.84781,7.58284 -3.98762,12.27367 1.32646,2.17547 1.61855,2.2984 7.66412,3.22583 0.95421,0.14637 47.04805,0.30867 102.43078,0.36064 l 100.69586,0.0945 z m -58.70386,-33.4167 c 5.41492,-2.2625 6.66592,-8.95628 2.4599,-13.1623 l -2.1467,-2.1467 H 406.24654 359.0133 l -2.02497,2.26633 c -1.60855,1.80028 -2.02497,2.91566 -2.02497,5.42386 0,3.88542 0.83123,5.52295 3.68761,7.26461 2.12919,1.29825 3.87655,1.3483 47.16765,1.35079 37.56071,0.002 45.34997,-0.16178 47.34795,-0.99659 z"
     id="path1780" />
  <path
     style="fill:#ffffff;stroke-width:0.693965"
     d="m 225.74658,373.35727 c -3.39299,-2.37374 -10.75572,-5.20857 -13.52788,-5.20857 -1.72081,0 -2.00403,-1.27704 -1.18803,-5.35703 0.38337,-1.91683 0.72876,-2.11903 4.94742,-2.89635 8.55534,-1.57638 15.09572,-6.43237 18.7873,-13.94885 1.61171,-3.28162 1.89191,-4.77146 1.98344,-10.54622 0.0956,-6.03455 0.28662,-6.9608 1.86079,-9.02463 2.42427,-3.17839 3.23736,-5.61315 3.23736,-9.69415 0,-9.12331 -7.17439,-14.71064 -26.04181,-20.28105 -15.07195,-4.44983 -24.26248,-5.44812 -33.03622,-3.58844 -9.47998,2.00939 -17.13701,7.88599 -21.30325,16.34979 -2.83217,5.7536 -3.40277,11.42285 -2.20037,21.86187 0.73536,6.38436 0.73984,8.45802 0.0238,11.01551 -2.14601,7.6648 -10.72645,12.96071 -24.8333,15.32728 l -2.94936,0.49479 v -98.385 c 0,-98.37577 1.4e-4,-98.38528 1.45025,-101.3808 1.73334,-3.58061 5.27812,-6.66701 8.9053,-7.75374 3.70288,-1.10941 203.19733,-1.12473 207.20264,-0.0159 1.72109,0.47646 3.99508,1.99123 5.98448,3.98643 4.56002,4.57331 4.77199,6.10494 4.77199,34.48058 v 23.90765 h -38.74446 -38.74445 l -3.41395,1.9084 -3.41395,1.90841 -54.01304,0.34698 -54.01303,0.34699 -2.01012,2.25003 c -2.56012,2.86569 -3.12316,5.16229 -2.10156,8.57211 1.6293,5.43809 -1.70039,5.11558 55.02808,5.33005 l 50.517,0.19098 v 71.11397 71.11397 l -19.95151,-0.0715 -19.95151,-0.0715 z m 40.3223,-174.71987 c 6.44206,-3.31071 5.67232,-13.15289 -1.17746,-15.05529 -4.04669,-1.1239 -36.45477,-0.93956 -39.20143,0.22297 -3.11785,1.31965 -4.71844,3.3489 -5.144,6.52165 -0.47288,3.52562 1.25033,6.90267 4.17025,8.17263 3.01411,1.31092 38.83772,1.4305 41.35264,0.13804 z"
     id="path1819" />
  <path
     style="fill:#ffffff;stroke-width:0.693965"
     d="m 33.304392,256.51396 c -3.498624,-1.58939 -6.985589,-5.51146 -7.932924,-8.9228 -0.48942,-1.76239 -0.724226,-29.56771 -0.716581,-84.85625 0.01081,-78.150199 0.07435,-82.372791 1.279251,-85.010773 0.697335,-1.526724 2.323571,-3.802898 3.613858,-5.058165 4.655822,-4.529457 0.705419,-4.351897 92.285184,-4.147963 l 82.88665,0.184577 2.77586,1.493887 c 3.4842,1.875095 5.53214,4.051965 6.90653,7.341355 0.9188,2.199006 1.07407,7.383513 1.07407,35.864342 v 33.29374 l -36.95366,0.21239 c -36.35738,0.20896 -36.99845,0.2366 -39.72953,1.713 -3.27232,1.76899 -6.61969,5.17142 -8.42339,8.56189 -1.2194,2.29216 -1.30337,5.19249 -1.49197,51.52694 l -0.19986,49.09806 -46.295836,-0.0153 C 39.102571,257.77869 35.90496,257.69529 33.304392,256.5139 Z M 189.79957,141.3944 c 1.508,-0.75334 2.9319,-2.24379 3.75563,-3.9312 1.20394,-2.46625 1.23606,-2.97433 0.34698,-5.48885 -0.53887,-1.52407 -1.86148,-3.42389 -2.93913,-4.22183 -1.95639,-1.4486 -2.06273,-1.4508 -70.09052,-1.4508 -37.472131,0 -68.99962,0.2426 -70.061082,0.5391 -1.061463,0.29651 -2.543647,1.54564 -3.293743,2.77586 -2.982026,4.89078 -0.880884,10.64428 4.529708,12.40358 0.763362,0.24822 31.523384,0.48195 68.355607,0.5194 62.44791,0.0635 67.1316,-0.0138 69.39655,-1.14526 z m -55.47321,-35.38582 c 3.54017,-3.96543 3.54019,-7.495624 6e-5,-11.461132 l -2.00868,-2.250035 -10.29465,-0.229363 c -6.35299,-0.141544 -11.30375,0.07221 -12.9302,0.558274 -4.66579,1.394372 -6.72185,7.140062 -4.25919,11.902336 1.83114,3.54103 4.16332,4.09255 16.49537,3.90081 l 10.98856,-0.17085 z"
     id="path1858" />
</svg>
